<svg width="184px" height="184px" viewBox="-6.96 -6.96 37.92 37.92" fill="none" xmlns="http://www.w3.org/2000/svg" stroke="#000000"><g id="SVGRepo_bgCarrier" stroke-width="0" transform="translate(0,0), scale(1)"><path transform="translate(-6.96, -6.96), scale(1.185)" d="M16,29.67152639850974C18.495720792277826,29.312715341026042,20.035224604209056,26.889539899512286,21.927115217842854,25.22277130308843C23.525075907289356,23.814956984281945,25.034827761199264,22.436669609571936,26.220238279571074,20.66742643120827C27.6062849849453,18.598730700597564,29.305845583139668,16.562232068911122,29.397039126252906,14.073796569843452C29.49472435630486,11.408219754892631,28.5768104236399,8.627206014560144,26.732079711414123,6.700599993614333C24.917010328316145,4.804971770624688,22.194185867146032,4.013237122174282,19.576987737107913,3.8178985100682485C17.247937685319357,3.644066273440737,15.228322679873488,5.086137995938722,12.967801990484764,5.673281933208562C10.611100827425284,6.285407629001833,7.984007363959868,5.918975859078492,6.0083573133007775,7.3421923277672985C3.810790660263004,8.925272818465187,1.841221361422532,11.2288599236253,1.5222516913801787,13.91841404729803C1.2047635649490902,16.595475786573992,3.038642496800771,18.96506398250981,4.350638740902372,21.320085027380376C5.5651759965232435,23.500168095167723,6.837887814182813,25.64652935249196,8.866103485483348,27.10055965425155C10.962881415279451,28.603742323197864,13.44632774033315,30.038669168162897,16,29.67152639850974" fill="#66b5ff" strokewidth="0"></path></g><g id="SVGRepo_tracerCarrier" stroke-linecap="round" stroke-linejoin="round" stroke="#fff5f0" stroke-width="1.7759999999999998"></g><g id="SVGRepo_iconCarrier"> <path d="M4 12H6.5M20 12L14 6M20 12L14 18M20 12H9.5" stroke="#fff5f0" stroke-width="1.536" stroke-linecap="round" stroke-linejoin="round"></path> </g></svg>